<mxfile host="app.diagrams.net" modified="2023-05-01T08:33:34.070Z" agent="Mozilla/5.0 (Windows NT 10.0; Win64; x64) AppleWebKit/537.36 (KHTML, like Gecko) Chrome/112.0.0.0 Safari/537.36" etag="wnVftOhjNtVKfWpgU9k4" version="21.2.3" type="github">
  <diagram name="페이지-1" id="8ELoFhuOuiWbeLR3Mnh8">
    <mxGraphModel dx="1434" dy="739" grid="1" gridSize="10" guides="1" tooltips="1" connect="1" arrows="1" fold="1" page="1" pageScale="1" pageWidth="827" pageHeight="1169" math="0" shadow="0">
      <root>
        <mxCell id="0" />
        <mxCell id="1" parent="0" />
        <mxCell id="ZLKB3yt9K_pz1bhaI2nW-5" style="edgeStyle=orthogonalEdgeStyle;rounded=0;orthogonalLoop=1;jettySize=auto;html=1;exitX=0.5;exitY=1;exitDx=0;exitDy=0;entryX=0.5;entryY=0;entryDx=0;entryDy=0;" edge="1" parent="1" source="ZLKB3yt9K_pz1bhaI2nW-1" target="ZLKB3yt9K_pz1bhaI2nW-2">
          <mxGeometry relative="1" as="geometry" />
        </mxCell>
        <mxCell id="ZLKB3yt9K_pz1bhaI2nW-6" style="edgeStyle=orthogonalEdgeStyle;rounded=0;orthogonalLoop=1;jettySize=auto;html=1;exitX=0.5;exitY=1;exitDx=0;exitDy=0;entryX=0.5;entryY=0;entryDx=0;entryDy=0;" edge="1" parent="1" source="ZLKB3yt9K_pz1bhaI2nW-1" target="ZLKB3yt9K_pz1bhaI2nW-4">
          <mxGeometry relative="1" as="geometry" />
        </mxCell>
        <mxCell id="ZLKB3yt9K_pz1bhaI2nW-7" style="edgeStyle=orthogonalEdgeStyle;rounded=0;orthogonalLoop=1;jettySize=auto;html=1;exitX=0.5;exitY=1;exitDx=0;exitDy=0;entryX=0.5;entryY=0;entryDx=0;entryDy=0;" edge="1" parent="1" source="ZLKB3yt9K_pz1bhaI2nW-1" target="ZLKB3yt9K_pz1bhaI2nW-3">
          <mxGeometry relative="1" as="geometry" />
        </mxCell>
        <mxCell id="ZLKB3yt9K_pz1bhaI2nW-16" style="edgeStyle=orthogonalEdgeStyle;rounded=0;orthogonalLoop=1;jettySize=auto;html=1;exitX=0.5;exitY=1;exitDx=0;exitDy=0;entryX=0.5;entryY=0;entryDx=0;entryDy=0;" edge="1" parent="1" source="ZLKB3yt9K_pz1bhaI2nW-1">
          <mxGeometry relative="1" as="geometry">
            <mxPoint x="73" y="210" as="targetPoint" />
          </mxGeometry>
        </mxCell>
        <mxCell id="ZLKB3yt9K_pz1bhaI2nW-21" style="edgeStyle=orthogonalEdgeStyle;rounded=0;orthogonalLoop=1;jettySize=auto;html=1;exitX=0.5;exitY=1;exitDx=0;exitDy=0;entryX=0.5;entryY=0;entryDx=0;entryDy=0;" edge="1" parent="1" source="ZLKB3yt9K_pz1bhaI2nW-1" target="ZLKB3yt9K_pz1bhaI2nW-20">
          <mxGeometry relative="1" as="geometry" />
        </mxCell>
        <mxCell id="ZLKB3yt9K_pz1bhaI2nW-1" value="&lt;h1&gt;&lt;span style=&quot;font-size: 20px;&quot;&gt;라인트레이서&lt;/span&gt;&lt;/h1&gt;" style="rounded=1;whiteSpace=wrap;html=1;fillColor=#fff2cc;strokeColor=#d6b656;" vertex="1" parent="1">
          <mxGeometry x="351" y="80" width="126" height="60" as="geometry" />
        </mxCell>
        <mxCell id="ZLKB3yt9K_pz1bhaI2nW-13" style="edgeStyle=orthogonalEdgeStyle;rounded=0;orthogonalLoop=1;jettySize=auto;html=1;exitX=0.5;exitY=1;exitDx=0;exitDy=0;entryX=0.5;entryY=0;entryDx=0;entryDy=0;" edge="1" parent="1" source="ZLKB3yt9K_pz1bhaI2nW-2" target="ZLKB3yt9K_pz1bhaI2nW-9">
          <mxGeometry relative="1" as="geometry" />
        </mxCell>
        <mxCell id="ZLKB3yt9K_pz1bhaI2nW-2" value="&lt;h1&gt;&lt;span style=&quot;font-size: 20px;&quot;&gt;적외선센서B&lt;/span&gt;&lt;/h1&gt;" style="rounded=1;whiteSpace=wrap;html=1;fillColor=#fff2cc;strokeColor=#d6b656;" vertex="1" parent="1">
          <mxGeometry x="351" y="210" width="126" height="60" as="geometry" />
        </mxCell>
        <mxCell id="ZLKB3yt9K_pz1bhaI2nW-14" style="edgeStyle=orthogonalEdgeStyle;rounded=0;orthogonalLoop=1;jettySize=auto;html=1;exitX=0.5;exitY=1;exitDx=0;exitDy=0;entryX=0.5;entryY=0;entryDx=0;entryDy=0;" edge="1" parent="1" source="ZLKB3yt9K_pz1bhaI2nW-3" target="ZLKB3yt9K_pz1bhaI2nW-10">
          <mxGeometry relative="1" as="geometry" />
        </mxCell>
        <mxCell id="ZLKB3yt9K_pz1bhaI2nW-3" value="&lt;h1&gt;&lt;span style=&quot;font-size: 20px;&quot;&gt;적외선센서C&lt;/span&gt;&lt;/h1&gt;" style="rounded=1;whiteSpace=wrap;html=1;fillColor=#fff2cc;strokeColor=#d6b656;" vertex="1" parent="1">
          <mxGeometry x="520" y="210" width="126" height="60" as="geometry" />
        </mxCell>
        <mxCell id="ZLKB3yt9K_pz1bhaI2nW-12" style="edgeStyle=orthogonalEdgeStyle;rounded=0;orthogonalLoop=1;jettySize=auto;html=1;exitX=0.5;exitY=1;exitDx=0;exitDy=0;entryX=0.5;entryY=0;entryDx=0;entryDy=0;" edge="1" parent="1" source="ZLKB3yt9K_pz1bhaI2nW-4" target="ZLKB3yt9K_pz1bhaI2nW-11">
          <mxGeometry relative="1" as="geometry" />
        </mxCell>
        <mxCell id="ZLKB3yt9K_pz1bhaI2nW-4" value="&lt;h1&gt;&lt;span style=&quot;font-size: 20px;&quot;&gt;적외선센서A&lt;/span&gt;&lt;/h1&gt;" style="rounded=1;whiteSpace=wrap;html=1;fillColor=#fff2cc;strokeColor=#d6b656;" vertex="1" parent="1">
          <mxGeometry x="180" y="210" width="126" height="60" as="geometry" />
        </mxCell>
        <mxCell id="ZLKB3yt9K_pz1bhaI2nW-9" value="&lt;h1&gt;&lt;span style=&quot;font-size: 20px;&quot;&gt;직 진&lt;/span&gt;&lt;/h1&gt;" style="rounded=1;whiteSpace=wrap;html=1;fillColor=#fff2cc;strokeColor=#d6b656;" vertex="1" parent="1">
          <mxGeometry x="351" y="340" width="126" height="60" as="geometry" />
        </mxCell>
        <mxCell id="ZLKB3yt9K_pz1bhaI2nW-10" value="&lt;h1&gt;&lt;span style=&quot;font-size: 20px;&quot;&gt;우 회 전&lt;/span&gt;&lt;/h1&gt;" style="rounded=1;whiteSpace=wrap;html=1;fillColor=#fff2cc;strokeColor=#d6b656;" vertex="1" parent="1">
          <mxGeometry x="520" y="340" width="126" height="60" as="geometry" />
        </mxCell>
        <mxCell id="ZLKB3yt9K_pz1bhaI2nW-11" value="&lt;h1&gt;&lt;span style=&quot;font-size: 20px;&quot;&gt;좌 회 전&lt;/span&gt;&lt;/h1&gt;" style="rounded=1;whiteSpace=wrap;html=1;fillColor=#fff2cc;strokeColor=#d6b656;" vertex="1" parent="1">
          <mxGeometry x="180" y="340" width="126" height="60" as="geometry" />
        </mxCell>
        <mxCell id="ZLKB3yt9K_pz1bhaI2nW-19" style="edgeStyle=orthogonalEdgeStyle;rounded=0;orthogonalLoop=1;jettySize=auto;html=1;exitX=0.5;exitY=1;exitDx=0;exitDy=0;entryX=0.5;entryY=0;entryDx=0;entryDy=0;" edge="1" parent="1" source="ZLKB3yt9K_pz1bhaI2nW-17" target="ZLKB3yt9K_pz1bhaI2nW-18">
          <mxGeometry relative="1" as="geometry" />
        </mxCell>
        <mxCell id="ZLKB3yt9K_pz1bhaI2nW-17" value="&lt;h1&gt;입력 : 0&lt;/h1&gt;" style="rounded=1;whiteSpace=wrap;html=1;fillColor=#fff2cc;strokeColor=#d6b656;" vertex="1" parent="1">
          <mxGeometry x="10" y="210" width="126" height="60" as="geometry" />
        </mxCell>
        <mxCell id="ZLKB3yt9K_pz1bhaI2nW-18" value="&lt;h1&gt;후 진&lt;/h1&gt;" style="rounded=1;whiteSpace=wrap;html=1;fillColor=#fff2cc;strokeColor=#d6b656;" vertex="1" parent="1">
          <mxGeometry x="10" y="340" width="126" height="60" as="geometry" />
        </mxCell>
        <mxCell id="ZLKB3yt9K_pz1bhaI2nW-23" style="edgeStyle=orthogonalEdgeStyle;rounded=0;orthogonalLoop=1;jettySize=auto;html=1;exitX=0.5;exitY=1;exitDx=0;exitDy=0;entryX=0.5;entryY=0;entryDx=0;entryDy=0;" edge="1" parent="1" source="ZLKB3yt9K_pz1bhaI2nW-20" target="ZLKB3yt9K_pz1bhaI2nW-22">
          <mxGeometry relative="1" as="geometry" />
        </mxCell>
        <mxCell id="ZLKB3yt9K_pz1bhaI2nW-20" value="&lt;h1&gt;&lt;span style=&quot;font-size: 20px;&quot;&gt;초음파센서&lt;/span&gt;&lt;/h1&gt;" style="rounded=1;whiteSpace=wrap;html=1;fillColor=#fff2cc;strokeColor=#d6b656;" vertex="1" parent="1">
          <mxGeometry x="690" y="210" width="126" height="60" as="geometry" />
        </mxCell>
        <mxCell id="ZLKB3yt9K_pz1bhaI2nW-22" value="&lt;h1&gt;&lt;span style=&quot;font-size: 20px;&quot;&gt;유 턴&lt;/span&gt;&lt;/h1&gt;" style="rounded=1;whiteSpace=wrap;html=1;fillColor=#fff2cc;strokeColor=#d6b656;" vertex="1" parent="1">
          <mxGeometry x="690" y="340" width="126" height="60" as="geometry" />
        </mxCell>
      </root>
    </mxGraphModel>
  </diagram>
</mxfile>
